<?xml version="1.0" standalone="no"?>
<!DOCTYPE svg PUBLIC "-//W3C//DTD SVG 20010904//EN"
 "http://www.w3.org/TR/2001/REC-SVG-20010904/DTD/svg10.dtd">
<svg version="1.0" xmlns="http://www.w3.org/2000/svg"
 width="512.000000pt" height="512.000000pt" viewBox="0 0 512.000000 512.000000"
 preserveAspectRatio="xMidYMid meet">
<metadata>
Created by potrace 1.14, written by Peter Selinger 2001-2017
</metadata>
<g transform="translate(0.000000,512.000000) scale(0.100000,-0.100000)"
fill="#000000" stroke="none">
<path d="M1833 4848 c-6 -7 -34 -76 -63 -153 -28 -77 -60 -160 -70 -185 -10
-25 -55 -142 -100 -260 -118 -311 -180 -472 -191 -495 -4 -11 -15 -38 -22 -60
-8 -22 -56 -148 -107 -280 -50 -132 -107 -280 -126 -330 -19 -49 -39 -102 -45
-116 -6 -16 -26 -33 -52 -44 -65 -29 -160 -129 -185 -197 -22 -58 -35 -132
-25 -142 3 -3 22 7 42 23 83 66 286 159 470 216 81 25 286 85 311 90 8 2 78
19 155 39 118 30 506 115 597 131 14 3 64 14 110 25 46 10 97 22 113 25 44 8
394 98 518 134 238 69 572 192 628 231 15 11 30 20 35 20 13 0 118 82 152 120
18 19 47 64 64 100 28 56 32 76 32 145 0 44 -4 88 -10 98 -9 15 -14 11 -44
-34 -42 -65 -110 -135 -177 -182 -46 -32 -125 -77 -136 -77 -3 0 -19 39 -37
88 -39 106 -99 260 -111 287 -4 11 -34 88 -65 170 -70 185 -97 256 -122 320
-11 28 -41 107 -68 178 l-49 127 -313 0 c-294 0 -313 -1 -308 -17 10 -33 88
-338 92 -363 3 -14 12 -50 20 -80 9 -30 18 -68 21 -85 2 -16 6 -37 9 -45 9
-23 35 -122 40 -150 3 -14 7 -33 10 -42 3 -9 7 -25 9 -35 12 -55 76 -312 84
-338 26 -81 62 -258 55 -264 -8 -7 -350 -94 -414 -105 -14 -3 -133 -29 -265
-59 -132 -30 -241 -53 -243 -52 -1 1 21 93 49 205 28 112 52 211 54 219 2 9
65 261 140 561 75 300 138 552 140 561 2 9 8 33 13 53 l10 36 -308 0 c-234 0
-310 -3 -317 -12z"/>
<path d="M4230 3669 c-80 -156 -209 -274 -417 -378 -44 -23 -87 -41 -95 -41
-8 0 -18 -4 -23 -9 -8 -8 -200 -74 -350 -121 -164 -51 -885 -228 -1120 -275
-42 -9 -254 -57 -335 -76 -98 -24 -116 -28 -150 -35 -14 -3 -93 -23 -175 -44
-297 -77 -553 -171 -717 -263 -77 -43 -172 -126 -195 -171 -9 -17 -19 -33 -22
-36 -3 -3 -15 -30 -25 -60 -21 -57 -33 -234 -17 -228 5 2 34 27 65 56 158 146
390 252 831 380 87 26 612 154 676 165 14 3 53 12 85 21 32 9 248 63 479 120
473 118 590 148 689 177 38 11 76 22 85 24 9 2 50 15 91 29 244 85 414 175
514 272 137 134 195 286 173 454 -12 83 -21 91 -47 39z"/>
<path d="M4411 3244 c-40 -71 -89 -134 -150 -193 -72 -69 -133 -111 -272 -189
-37 -21 -255 -110 -286 -117 -18 -5 -246 -73 -273 -83 -8 -3 -19 -6 -25 -8
-35 -8 -442 -118 -500 -134 -82 -22 -422 -107 -456 -114 -24 -4 -141 -33 -249
-61 -30 -8 -66 -16 -80 -19 -40 -8 -62 -13 -109 -26 -25 -6 -56 -13 -70 -15
-14 -2 -26 -4 -26 -5 0 -1 -11 -4 -25 -6 -14 -3 -43 -9 -65 -15 -22 -6 -48
-13 -59 -15 -10 -2 -55 -13 -100 -25 -45 -11 -88 -22 -96 -24 -54 -11 -228
-64 -350 -107 -251 -87 -484 -212 -601 -322 -154 -144 -237 -318 -253 -533 -5
-59 6 -62 42 -10 71 105 267 263 440 354 215 114 639 254 1087 358 11 3 63 16
115 29 820 211 1270 337 1611 450 290 96 347 118 449 173 182 97 285 212 341
378 27 82 31 233 7 299 l-14 39 -33 -59z"/>
<path d="M4125 2371 c-142 -67 -564 -209 -765 -259 -20 -5 -35 -14 -34 -23 0
-8 19 -93 43 -189 24 -96 44 -179 45 -185 2 -5 8 -28 14 -50 6 -22 13 -51 16
-65 6 -30 2 -12 71 -285 30 -121 57 -230 59 -243 3 -13 12 -46 20 -75 8 -29
17 -63 20 -77 9 -51 29 -120 35 -124 3 -2 35 -7 71 -10 36 -4 76 -9 90 -11 14
-2 50 -7 80 -10 30 -3 71 -8 90 -10 19 -3 58 -7 85 -10 28 -3 79 -10 115 -16
36 -6 83 -13 105 -15 22 -3 78 -12 125 -20 47 -8 112 -19 145 -24 33 -5 85
-14 115 -20 30 -6 78 -15 105 -20 28 -5 63 -12 79 -15 33 -7 33 -9 -7 95 -25
69 -210 548 -282 735 -23 61 -63 166 -89 235 -26 69 -51 134 -56 145 -5 11
-57 144 -114 295 -57 151 -108 276 -113 277 -4 1 -35 -10 -68 -26z"/>
<path d="M1515 1650 c-554 -161 -807 -284 -1020 -495 -142 -140 -126 -114
-240 -408 -25 -65 -45 -122 -45 -128 0 -6 11 -8 27 -5 16 4 42 9 58 11 17 3
50 10 75 15 44 9 186 34 245 43 17 3 73 12 125 20 52 9 115 18 140 21 25 3 54
8 65 10 11 2 45 7 75 11 30 3 66 8 80 10 14 3 54 7 90 10 36 3 76 8 90 10 14
2 54 7 90 10 36 4 68 10 72 13 3 4 18 54 33 112 25 100 29 118 39 165 2 11 36
146 75 301 71 280 78 315 64 313 -5 0 -66 -18 -138 -39z"/>
</g>
</svg>
